<?xml version="1.0" standalone="no"?>
<!-- Generator: Adobe Fireworks 10, Export SVG Extension by Aaron Beall (http://fireworks.abeall.com) . Version: 0.6.1  -->
<!DOCTYPE svg PUBLIC "-//W3C//DTD SVG 1.1//EN" "http://www.w3.org/Graphics/SVG/1.1/DTD/svg11.dtd">
<svg id="tooltip-icon-Page%201" viewBox="0 0 16 16" style="background-color:#ffffff00" version="1.1"
	xmlns="http://www.w3.org/2000/svg" xmlns:xlink="http://www.w3.org/1999/xlink" xml:space="preserve"
	x="0px" y="0px" width="16px" height="16px"
>
	<g id="Layer%201">
		<g>
			<g>
				<path id="Ellipse" d="M 0 8 C 0 3.5816 3.5817 0 8 0 C 12.4183 0 16 3.5816 16 8 C 16 12.4184 12.4183 16 8 16 C 3.5817 16 0 12.4184 0 8 Z" fill="#a6ceeb"/>
				<g>
					<path d="M 8.2729 9.3478 L 8.2729 9.0108 C 8.2729 8.7934 8.3167 8.6086 8.4151 8.4673 C 8.5136 8.3369 8.7542 8.1304 9.1261 7.8695 C 9.662 7.5 10.0229 7.1739 10.2198 6.8695 C 10.4167 6.576 10.5151 6.2173 10.5151 5.8043 C 10.5151 5.1956 10.2745 4.7065 9.8151 4.3369 C 9.3557 3.9674 8.7323 3.7826 7.9448 3.7826 C 6.9823 3.7826 6.0854 4.0217 5.2323 4.4891 L 5.8667 5.7065 C 6.6104 5.3587 7.2886 5.1739 7.8792 5.1739 C 8.2073 5.1739 8.4698 5.2391 8.6557 5.3695 C 8.8417 5.5 8.9401 5.6739 8.9401 5.913 C 8.9401 6.1304 8.8745 6.326 8.7432 6.5 C 8.612 6.6739 8.3386 6.9021 7.9339 7.1739 C 7.5073 7.4782 7.212 7.75 7.0589 8.0108 C 6.8948 8.2717 6.8183 8.5869 6.8183 8.9347 L 6.8183 9.3478 L 8.2729 9.3478 L 8.2729 9.3478 ZM 6.8948 11.8586 C 7.0589 12.0434 7.2995 12.1304 7.6057 12.1304 C 7.9011 12.1304 8.1307 12.0434 8.3057 11.8586 C 8.4698 11.6739 8.5573 11.413 8.5573 11.0869 C 8.5573 10.7608 8.4698 10.4999 8.3057 10.3152 C 8.1417 10.1413 7.912 10.0434 7.6057 10.0434 C 7.2886 10.0434 7.0479 10.1413 6.8839 10.3152 C 6.7198 10.4891 6.6433 10.7499 6.6433 11.0869 C 6.6433 11.4239 6.7198 11.6847 6.8948 11.8586 L 6.8948 11.8586 Z" fill="#333333"/>
				</g>
			</g>
		</g>
	</g>
</svg>