<?xml version="1.0" standalone="no"?><!-- Generator: Adobe Fireworks CS6, Export SVG Extension by Aaron Beall (http://fireworks.abeall.com) . Version: 0.6.1  --><!DOCTYPE svg PUBLIC "-//W3C//DTD SVG 1.1//EN" "http://www.w3.org/Graphics/SVG/1.1/DTD/svg11.dtd"><svg id="Untitled-P%E1gina%201" viewBox="0 0 138 37" style="background-color:#ffffff00" version="1.1"	xmlns="http://www.w3.org/2000/svg" xmlns:xlink="http://www.w3.org/1999/xlink" xml:space="preserve"	x="0px" y="0px" width="138px" height="37px">	<g id="Capa%201">		<g>			<path d="M 51.9613 32.4429 C 51.9613 34.2326 51.0692 35.1921 49.5247 35.1921 C 47.9766 35.1921 47.0879 34.2326 47.0879 32.4429 L 47.0879 28.7115 L 47.9872 28.7115 L 47.9872 32.3269 C 47.9872 33.5494 48.3678 34.3912 49.5247 34.3912 C 50.6822 34.3912 51.0636 33.5494 51.0636 32.3269 L 51.0636 28.7115 L 51.9613 28.7115 L 51.9613 32.4429 Z" fill="#007cc2"/>			<path d="M 53.14 30.4268 L 53.9564 30.4268 L 53.9564 31.166 L 53.9728 31.166 C 54.2281 30.6367 54.8395 30.3168 55.4777 30.3168 C 56.6621 30.3168 57.1912 31.0653 57.1912 32.3147 L 57.1912 35.0829 L 56.3476 35.0829 L 56.3476 32.6723 C 56.3476 31.5878 56.1139 31.0567 55.3758 31.0118 C 54.4163 31.0118 53.986 31.7972 53.986 32.9287 L 53.986 35.0829 L 53.14 35.0829 L 53.14 30.4268 Z" fill="#007cc2"/>			<path d="M 58.4975 30.7552 C 58.9204 30.4999 59.4227 30.3168 60.0057 30.3168 C 61.32 30.3168 61.8503 30.9744 61.8503 32.2428 L 61.8503 34.172 C 61.8503 34.6989 61.8691 34.9449 61.8859 35.0829 L 61.0938 35.0829 L 61.0938 34.4802 L 61.0778 34.4802 C 60.8804 34.7651 60.4285 35.1909 59.6572 35.1909 C 58.665 35.1909 57.976 34.7546 57.976 33.7414 C 57.976 32.5744 59.2332 32.2076 60.1092 32.2076 C 60.4369 32.2076 60.6762 32.2076 61.0055 32.2265 C 61.0055 31.4213 60.7158 31.0118 59.8754 31.0118 C 59.3963 31.0118 58.886 31.1932 58.5423 31.4866 L 58.4975 30.7552 ZM 61.0055 32.8643 C 60.8273 32.8643 60.6467 32.8464 60.4652 32.8464 C 60.0057 32.8464 58.8748 32.9212 58.8748 33.7414 C 58.8748 34.2341 59.3407 34.4993 59.7291 34.4993 C 60.5639 34.4993 61.0055 33.9695 61.0055 33.2751 L 61.0055 32.8643 Z" fill="#007cc2"/>			<path d="M 67.9807 31.2139 C 67.6586 31.0747 67.3353 31.0118 67.0652 31.0118 C 66.1213 31.0118 65.5914 31.8698 65.5914 32.7563 C 65.5914 33.5888 66.0294 34.4993 67.1199 34.4993 C 67.4061 34.4993 67.7665 34.4087 68.0294 34.2326 L 68.0898 35.0017 C 67.7397 35.1666 67.3353 35.1909 67.0252 35.1909 C 65.6446 35.1909 64.6935 34.0885 64.6935 32.7563 C 64.6935 31.3389 65.6266 30.3168 67.0252 30.3168 C 67.3697 30.3168 67.8105 30.3992 68.0534 30.5015 L 67.9807 31.2139 Z" fill="#007cc2"/>			<path d="M 70.7428 30.3152 C 72.1334 30.3152 73.0717 31.3389 73.0717 32.7563 C 73.0717 34.0885 72.1171 35.1909 70.7428 35.1909 C 69.3585 35.1909 68.4047 34.0885 68.4047 32.7563 C 68.4047 31.3389 69.341 30.3152 70.7428 30.3152 L 70.7428 30.3152 ZM 70.7428 34.4993 C 71.7315 34.4993 72.1702 33.5888 72.1702 32.7563 C 72.1702 31.8686 71.6407 31.0118 70.7428 31.0118 C 69.8345 31.0118 69.3054 31.8686 69.3054 32.7563 C 69.3054 33.5888 69.7442 34.4993 70.7428 34.4993 L 70.7428 34.4993 Z" fill="#007cc2"/>			<path d="M 73.8438 30.4268 L 74.635 30.4268 L 74.635 31.1014 L 74.6518 31.1014 C 74.9767 30.5633 75.437 30.3168 76.1096 30.3168 C 76.6423 30.3168 77.1685 30.5904 77.4135 31.22 C 77.7296 30.5527 78.4217 30.3168 78.8341 30.3168 C 80.0006 30.3168 80.4233 31.0808 80.4233 32.0975 L 80.4233 35.0829 L 79.5786 35.0829 L 79.5786 32.3078 C 79.5786 31.7334 79.4455 31.0118 78.7606 31.0118 C 77.899 31.0118 77.557 31.8698 77.557 32.7365 L 77.557 35.0829 L 76.7106 35.0829 L 76.7106 32.3078 C 76.7106 31.7334 76.5779 31.0118 75.8954 31.0118 C 75.0298 31.0118 74.6898 31.8698 74.6898 32.7365 L 74.6898 35.0829 L 73.8438 35.0829 L 73.8438 30.4268 Z" fill="#007cc2"/>			<path d="M 81.4436 30.4268 L 82.2532 30.4268 L 82.2532 31.0808 L 82.2692 31.0808 C 82.4926 30.7369 83.0132 30.3168 83.8228 30.3168 C 85.1531 30.3168 85.8033 31.4213 85.8033 32.6723 C 85.8033 33.9516 85.2199 35.1921 83.8348 35.1921 C 83.0264 35.1921 82.5645 34.8711 82.3051 34.4424 L 82.2896 34.4424 L 82.2896 37 L 81.4436 37 L 81.4436 30.4268 ZM 83.6458 31.0118 C 82.7255 31.0118 82.2896 31.8954 82.2896 32.7648 C 82.2896 33.5397 82.6855 34.4993 83.6339 34.4993 C 84.5421 34.4993 84.923 33.4686 84.9042 32.7365 C 84.923 31.8954 84.5641 31.0118 83.6458 31.0118 L 83.6458 31.0118 Z" fill="#007cc2"/>			<path d="M 86.7916 30.7552 C 87.2135 30.4999 87.7175 30.3168 88.3009 30.3168 C 89.6136 30.3168 90.1451 30.9744 90.1451 32.2428 L 90.1451 34.172 C 90.1451 34.6989 90.1659 34.9449 90.1806 35.0829 L 89.3906 35.0829 L 89.3906 34.4802 L 89.373 34.4802 C 89.1748 34.7651 88.7245 35.1909 87.9504 35.1909 C 86.963 35.1909 86.2717 34.7546 86.2717 33.7414 C 86.2717 32.5744 87.5268 32.2076 88.4012 32.2076 C 88.7349 32.2076 88.9678 32.2076 89.3023 32.2265 C 89.3023 31.4213 89.0142 31.0118 88.1678 31.0118 C 87.6923 31.0118 87.1784 31.1932 86.8383 31.4866 L 86.7916 30.7552 ZM 89.3023 32.8643 C 89.1233 32.8643 88.9419 32.8464 88.7612 32.8464 C 88.3009 32.8464 87.168 32.9212 87.168 33.7414 C 87.168 34.2341 87.6331 34.4993 88.0243 34.4993 C 88.8571 34.4993 89.3023 33.9695 89.3023 33.2751 L 89.3023 32.8643 Z" fill="#007cc2"/>			<path d="M 91.222 30.4268 L 92.0428 30.4268 L 92.0428 31.1676 L 92.0576 31.1676 C 92.313 30.6367 92.9216 30.3168 93.5625 30.3168 C 94.7494 30.3168 95.2785 31.0636 95.2785 32.3147 L 95.2785 35.0829 L 94.4345 35.0829 L 94.4345 32.6711 C 94.4345 31.5878 94.1991 31.0551 93.4646 31.0118 C 92.5012 31.0118 92.068 31.7972 92.068 32.9287 L 92.068 35.0829 L 91.222 35.0829 L 91.222 30.4268 ZM 91.7327 29.7314 C 91.7819 29.3406 91.9617 28.7102 92.5719 28.7102 C 93.0387 28.7102 93.5821 29.141 93.957 29.1276 C 94.2271 29.1486 94.3434 28.9193 94.3714 28.7102 L 94.787 28.7102 C 94.7326 29.1021 94.552 29.7314 93.9418 29.7314 C 93.4731 29.7314 92.9352 29.3029 92.5543 29.315 C 92.2862 29.2951 92.1687 29.5232 92.1423 29.7314 L 91.7327 29.7314 Z" fill="#007cc2"/>			<path d="M 97.1091 28.4643 L 98.0861 28.4643 L 96.9061 29.7785 L 96.3059 29.7785 L 97.1091 28.4643 ZM 96.4749 30.4268 L 97.3189 30.4268 L 97.3189 35.0829 L 96.4749 35.0829 L 96.4749 30.4268 Z" fill="#007cc2"/>			<path d="M 98.7047 30.7552 C 99.1271 30.4999 99.6326 30.3168 100.2161 30.3168 C 101.5292 30.3168 102.0567 30.9744 102.0567 32.2428 L 102.0567 34.172 C 102.0567 34.6989 102.0778 34.9449 102.0946 35.0829 L 101.3038 35.0829 L 101.3038 34.4802 L 101.2898 34.4802 C 101.088 34.7651 100.6388 35.1909 99.8648 35.1909 C 98.8753 35.1909 98.1868 34.7546 98.1868 33.7414 C 98.1868 32.5744 99.4436 32.2076 100.3156 32.2076 C 100.65 32.2076 100.8838 32.2076 101.2127 32.2265 C 101.2127 31.4213 100.9258 31.0118 100.0818 31.0118 C 99.6047 31.0118 99.0936 31.1932 98.7523 31.4866 L 98.7047 30.7552 ZM 101.2127 32.8643 C 101.0349 32.8643 100.853 32.8464 100.674 32.8464 C 100.2161 32.8464 99.0824 32.9212 99.0824 33.7414 C 99.0824 34.2341 99.5515 34.4993 99.9363 34.4993 C 100.7747 34.4993 101.2127 33.9695 101.2127 33.2751 L 101.2127 32.8643 Z" fill="#007cc2"/>			<path d="M 115.9059 31.3458 C 115.4368 31.3458 115.0464 31.5946 114.9473 32.0704 L 116.8099 32.0704 C 116.7304 31.6339 116.3327 31.3458 115.9059 31.3458 L 115.9059 31.3458 ZM 115.9323 35.188 C 114.4378 35.188 113.3165 34.3288 113.3165 32.7457 C 113.3165 31.2111 114.3523 30.2905 115.8192 30.2905 C 117.3909 30.2905 118.2964 31.2755 118.2964 32.8416 L 118.2964 33.0144 L 114.9205 33.0144 C 114.9205 33.6761 115.2662 34.0328 115.9283 34.0328 C 116.2712 34.0328 116.5201 33.92 116.6952 33.6098 L 118.2405 33.6098 C 117.9827 34.6978 116.9697 35.188 115.9323 35.188 L 115.9323 35.188 Z" fill="#007cc2"/>			<path d="M 121.1249 35.1097 L 119.5184 35.1097 L 119.5184 31.8576 L 118.7192 31.8576 L 118.7192 30.5165 L 119.5184 30.5165 L 119.5184 29.1332 L 121.1249 29.1332 L 121.1249 30.5165 L 121.9173 30.5165 L 121.9173 31.8576 L 121.1249 31.8576 L 121.1249 35.1097 Z" fill="#007cc2"/>			<path d="M 131.7005 35.089 L 130.0937 35.089 L 130.0937 31.9973 L 129.2989 31.9973 L 129.2989 30.65 L 130.0937 30.65 L 130.0937 30.4114 C 130.0937 29.7741 130.1121 29.3073 130.5529 28.7975 C 130.9505 28.3263 131.5255 28.067 132.1345 28.067 C 132.3807 28.067 132.6033 28.1116 132.8203 28.226 L 132.8203 29.6357 C 132.634 29.5562 132.4702 29.4827 132.256 29.4827 C 131.842 29.4827 131.7005 29.7303 131.7005 30.2498 L 131.7005 30.65 L 132.658 30.65 L 132.658 31.9973 L 131.7005 31.9973 L 131.7005 35.089 L 131.7005 35.089 Z" fill="#007cc2"/>			<path d="M 135.5972 31.3491 C 135.128 31.3491 134.742 31.6011 134.6425 32.074 L 136.5067 32.074 C 136.4243 31.6368 136.0307 31.3491 135.5972 31.3491 L 135.5972 31.3491 ZM 135.6347 35.1893 C 134.1346 35.1893 133.0161 34.3328 133.0161 32.7498 C 133.0161 31.215 134.0463 30.2933 135.516 30.2933 C 137.0877 30.2933 138 31.28 138 32.8461 L 138 33.0157 L 134.6213 33.0157 C 134.6213 33.6805 134.9618 34.0358 135.6223 34.0358 C 135.968 34.0358 136.2142 33.9221 136.3908 33.6143 L 137.9317 33.6143 C 137.6795 34.6989 136.6649 35.1893 135.6347 35.1893 L 135.6347 35.1893 Z" fill="#007cc2"/>			<path d="M 112.9361 35.1125 L 111.2873 35.1125 L 110.8209 31.4043 L 110.8085 31.4043 L 109.2816 35.1125 L 108.6267 35.1125 L 107.1753 31.4043 L 107.1541 31.4043 L 106.6266 35.1125 L 104.9846 35.1125 L 106.0623 28.6733 L 107.6832 28.6733 L 108.9735 32.1158 L 110.3354 28.6733 L 111.9758 28.6733 L 112.9361 35.1125 Z" fill="#007cc2"/>			<path d="M 126.2742 35.1056 L 122.593 35.1056 L 122.593 28.5601 L 124.2714 28.5601 L 124.2714 33.6655 L 126.2742 33.6655 L 126.2742 35.1056 Z" fill="#007cc2"/>			<path d="M 128.4813 35.1097 L 126.8788 35.1097 L 126.8788 30.1987 L 128.4813 30.1987 L 128.4813 35.1097 Z" fill="#007cc2"/>			<path d="M 127.6949 29.5789 C 127.1418 29.5789 126.6942 29.121 126.6942 28.5588 C 126.6942 27.9978 127.1418 27.54 127.6949 27.54 C 128.2463 27.54 128.6955 27.9978 128.6955 28.5588 C 128.6955 29.121 128.2463 29.5789 127.6949 29.5789 L 127.6949 29.5789 Z" fill="#007cc2"/>			<path d="M 4.9038 7.3428 L 4.9038 12.1225 L 5.7324 12.1225 C 7.5055 12.1225 9.2612 12.1225 9.2612 9.7814 C 9.2612 7.3697 7.6332 7.3428 5.7324 7.3428 L 4.9038 7.3428 L 4.9038 7.3428 ZM 4.9038 22.4983 L 0 22.4983 L 0 3.325 L 7.5055 3.325 C 11.5649 3.325 14.3684 5.2325 14.3684 9.63 C 14.3684 14.1561 11.9639 16.1378 7.6839 16.1378 L 4.9038 16.1378 L 4.9038 22.4983 L 4.9038 22.4983 Z" fill="#007cc2"/>			<path d="M 20.1518 22.4742 L 15.3316 22.4742 L 15.3316 8.664 L 20.1518 8.6653 L 20.1518 10.9226 L 20.2091 10.9226 C 21.1388 9.2272 22.7241 8.472 24.6102 8.472 L 25.5331 8.472 L 25.5331 13.1829 C 24.8707 12.8076 24.2364 12.7295 23.4943 12.7295 C 20.8155 12.7295 20.1518 14.53 20.1518 16.9019 L 20.1518 22.4742 L 20.1518 22.4742 Z" fill="#007cc2"/>			<path d="M 34.031 12.4579 C 32.0703 12.4579 30.928 13.883 30.928 15.5814 C 30.928 17.3305 32.0703 18.6776 34.031 18.6776 C 35.9929 18.6776 37.1296 17.332 37.1296 15.5814 C 37.1296 13.8845 35.9929 12.4579 34.031 12.4579 L 34.031 12.4579 ZM 34.031 22.9307 C 29.6803 22.9307 25.839 20.2932 25.839 15.5814 C 25.839 10.8684 29.6537 8.2061 34.031 8.2061 C 38.4011 8.2061 42.22 10.8684 42.22 15.5814 C 42.22 20.2635 38.4011 22.9307 34.031 22.9307 L 34.031 22.9307 Z" fill="#007cc2"/>			<path d="M 75.6548 12.4579 C 73.6975 12.4579 72.5574 13.8845 72.5574 15.5814 C 72.5574 17.332 73.6975 18.6776 75.6548 18.6776 C 77.6205 18.6776 78.759 17.332 78.759 15.5814 C 78.759 13.8845 77.6205 12.4579 75.6548 12.4579 L 75.6548 12.4579 ZM 74.4392 22.9307 C 70.4119 22.9307 67.5763 19.5101 67.5763 15.5557 C 67.5763 11.5942 70.3616 8.2061 74.3872 8.2061 C 75.9501 8.2061 77.5937 8.7965 78.5995 10.0071 L 78.5995 1.5579 L 83.4224 1.5579 L 83.4224 22.4742 L 78.5995 22.4742 L 78.5995 20.9381 L 78.5448 20.9381 C 77.6996 22.312 76.0296 22.9307 74.4392 22.9307 L 74.4392 22.9307 Z" fill="#007cc2"/>			<path d="M 66.1952 22.5197 L 61.4207 22.5197 L 61.4207 7.9114 L 66.1952 7.9114 L 66.1952 22.5197 Z" fill="#007cc2"/>			<path d="M 63.8575 6.0591 C 62.2107 6.0591 60.8784 4.7056 60.8784 3.0331 C 60.8784 1.3577 62.2107 0 63.8575 0 C 65.5067 0 66.8394 1.3577 66.8394 3.0331 C 66.8394 4.7056 65.5067 6.0591 63.8575 6.0591 L 63.8575 6.0591 Z" fill="#007cc2"/>			<path d="M 92.9959 12.4579 C 91.0302 12.4579 89.8917 13.8845 89.8917 15.5814 C 89.8917 17.332 91.0302 18.6776 92.9959 18.6776 C 94.9536 18.6776 96.0929 17.332 96.0929 15.5814 C 96.0929 13.8845 94.9536 12.4579 92.9959 12.4579 L 92.9959 12.4579 ZM 91.7727 22.9307 C 87.7438 22.9307 84.9098 19.5101 84.9098 15.5557 C 84.9098 11.5942 87.6923 8.2061 91.7179 8.2061 C 93.288 8.2061 94.9284 8.7965 95.9334 10.0071 L 95.9334 8.6625 L 100.7579 8.6625 L 100.7579 22.4742 L 95.9334 22.4742 L 95.9334 20.9381 L 95.8831 20.9381 C 95.0307 22.312 93.3636 22.9307 91.7727 22.9307 L 91.7727 22.9307 Z" fill="#007cc2"/>			<path d="M 51.855 22.5077 L 48.0431 22.5077 L 40.0997 3.3182 L 45.4385 3.3182 L 50.0018 14.9743 L 54.587 3.3182 L 59.9201 3.3182 L 51.855 22.5077 Z" fill="#007cc2"/>			<path d="M 113.5071 11.4564 L 110.9975 17.2524 L 116.0123 17.2524 L 113.5071 11.4564 ZM 120.2433 22.4821 L 118.3524 22.4821 L 116.7427 18.8866 L 110.2682 18.8866 L 108.6614 22.4821 L 106.7705 22.4821 L 113.5071 7.5357 L 120.2433 22.4821 L 120.2433 22.4821 Z" fill="#007cc2"/>			<path d="M 123.1613 22.4821 L 121.3978 22.4821 L 121.3978 8.1493 L 128.2323 8.1493 L 128.2323 9.7826 L 123.1613 9.7826 L 123.1613 13.8114 L 128.0645 13.8114 L 128.0645 15.4476 L 123.1613 15.4476 L 123.1613 22.4821 Z" fill="#007cc2"/>			<path d="M 132.0434 9.7433 L 132.0434 14.8769 L 132.6073 14.8769 C 134.4019 14.8769 136.3484 14.5343 136.3484 12.254 C 136.3484 10.0109 134.2549 9.7433 132.5094 9.7433 L 132.0434 9.7433 L 132.0434 9.7433 ZM 132.0434 22.4821 L 130.2839 22.4821 L 130.2839 8.1493 L 132.308 8.1493 C 136.6509 8.1493 137.9988 9.6665 137.9988 12.2915 C 137.9988 15.3118 135.7314 16.4713 133.058 16.4713 L 132.0434 16.4713 L 132.0434 22.4821 L 132.0434 22.4821 Z" fill="#007cc2"/>			<g>				<path d="M 134.6257 20.6403 C 134.473 20.5827 134.3879 20.5543 134.2309 20.5543 C 134.0642 20.5543 133.8685 20.6111 133.8685 20.8335 C 133.8685 21.2432 134.7628 21.1471 134.7628 21.8501 C 134.7628 22.3007 134.4199 22.4805 134.0015 22.4805 C 133.856 22.4805 133.7102 22.4387 133.5759 22.3939 L 133.6039 22.1104 C 133.7034 22.1508 133.8824 22.2134 134.0335 22.2134 C 134.2085 22.2134 134.4495 22.116 134.4495 21.8635 C 134.4495 21.3916 133.5495 21.5217 133.5495 20.8633 C 133.5495 20.4853 133.842 20.2842 134.2197 20.2842 C 134.3584 20.2842 134.5206 20.3097 134.6649 20.3595 L 134.6257 20.6403 Z" fill="#007cc2"/>				<path d="M 135.1756 20.3203 L 135.6699 20.3203 L 136.326 22.0833 L 136.9714 20.3203 L 137.4625 20.3203 L 137.4625 22.4457 L 137.1644 22.4457 L 137.1644 20.6039 L 137.156 20.6039 L 136.4647 22.4457 L 136.1778 22.4457 L 135.4837 20.6039 L 135.4753 20.6039 L 135.4753 22.4457 L 135.1756 22.4457 L 135.1756 20.3203 Z" fill="#007cc2"/>			</g>		</g>	</g></svg>