<?xml version="1.0" standalone="no"?>
<!-- Generator: Adobe Fireworks 10, Export SVG Extension by Aaron Beall (http://fireworks.abeall.com) . Version: 0.6.1  -->
<!DOCTYPE svg PUBLIC "-//W3C//DTD SVG 1.1//EN" "http://www.w3.org/Graphics/SVG/1.1/DTD/svg11.dtd">
<svg id="provida-Page%201" viewBox="0 0 182 50" style="background-color:#ffffff00" version="1.1"
	xmlns="http://www.w3.org/2000/svg" xmlns:xlink="http://www.w3.org/1999/xlink" xml:space="preserve"
	x="0px" y="0px" width="182px" height="50px"
>
	<g id="Layer%201">
		<g>
			<path d="M 68.5287 43.8417 C 68.5287 46.2602 67.3521 47.5569 65.3152 47.5569 C 63.2735 47.5569 62.1014 46.2602 62.1014 43.8417 L 62.1014 38.7993 L 63.2874 38.7993 L 63.2874 43.685 C 63.2874 45.3371 63.7895 46.4746 65.3152 46.4746 C 66.8417 46.4746 67.3447 45.3371 67.3447 43.685 L 67.3447 38.7993 L 68.5287 38.7993 L 68.5287 43.8417 Z" fill="#007cc2"/>
			<path d="M 70.0831 41.1172 L 71.1599 41.1172 L 71.1599 42.1162 L 71.1815 42.1162 C 71.5182 41.4009 72.3246 40.9686 73.1662 40.9686 C 74.7283 40.9686 75.4261 41.9801 75.4261 43.6685 L 75.4261 47.4094 L 74.3136 47.4094 L 74.3136 44.1518 C 74.3136 42.6862 74.0052 41.9685 73.0318 41.9078 C 71.7664 41.9078 71.1989 42.9692 71.1989 44.4983 L 71.1989 47.4094 L 70.0831 47.4094 L 70.0831 41.1172 Z" fill="#007cc2"/>
			<path d="M 77.1489 41.5611 C 77.7066 41.2161 78.369 40.9686 79.1379 40.9686 C 80.8713 40.9686 81.5707 41.8573 81.5707 43.5713 L 81.5707 46.1784 C 81.5707 46.8904 81.5954 47.2229 81.6176 47.4094 L 80.573 47.4094 L 80.573 46.5948 L 80.5519 46.5948 C 80.2916 46.9798 79.6955 47.5552 78.6783 47.5552 C 77.3698 47.5552 76.4612 46.9656 76.4612 45.5965 C 76.4612 44.0195 78.1192 43.5237 79.2744 43.5237 C 79.7066 43.5237 80.0222 43.5237 80.4565 43.5493 C 80.4565 42.4612 80.0744 41.9078 78.9661 41.9078 C 78.3342 41.9078 77.6612 42.153 77.2079 42.5494 L 77.1489 41.5611 ZM 80.4565 44.4112 C 80.2215 44.4112 79.9833 44.3871 79.744 44.3871 C 79.1379 44.3871 77.6464 44.4881 77.6464 45.5965 C 77.6464 46.2624 78.261 46.6206 78.7732 46.6206 C 79.8742 46.6206 80.4565 45.9047 80.4565 44.9663 L 80.4565 44.4112 Z" fill="#007cc2"/>
			<path d="M 89.6557 42.1809 C 89.2309 41.9928 88.8046 41.9078 88.4483 41.9078 C 87.2035 41.9078 86.5046 43.0673 86.5046 44.2653 C 86.5046 45.3903 87.0823 46.6206 88.5205 46.6206 C 88.8979 46.6206 89.3732 46.4983 89.72 46.2602 L 89.7996 47.2996 C 89.3379 47.5224 88.8046 47.5552 88.3956 47.5552 C 86.5747 47.5552 85.3204 46.0655 85.3204 44.2653 C 85.3204 42.3499 86.551 40.9686 88.3956 40.9686 C 88.8499 40.9686 89.4312 41.08 89.7516 41.2183 L 89.6557 42.1809 Z" fill="#007cc2"/>
			<path d="M 93.2985 40.9665 C 95.1325 40.9665 96.37 42.3499 96.37 44.2653 C 96.37 46.0655 95.1109 47.5552 93.2985 47.5552 C 91.4729 47.5552 90.2149 46.0655 90.2149 44.2653 C 90.2149 42.3499 91.4497 40.9665 93.2985 40.9665 L 93.2985 40.9665 ZM 93.2985 46.6206 C 94.6024 46.6206 95.181 45.3903 95.181 44.2653 C 95.181 43.0656 94.4827 41.9078 93.2985 41.9078 C 92.1006 41.9078 91.4028 43.0656 91.4028 44.2653 C 91.4028 45.3903 91.9814 46.6206 93.2985 46.6206 L 93.2985 46.6206 Z" fill="#007cc2"/>
			<path d="M 97.3882 41.1172 L 98.4317 41.1172 L 98.4317 42.029 L 98.4538 42.029 C 98.8823 41.3017 99.4894 40.9686 100.3764 40.9686 C 101.0789 40.9686 101.773 41.3383 102.0961 42.1892 C 102.513 41.2874 103.4258 40.9686 103.9696 40.9686 C 105.508 40.9686 106.0656 42.001 106.0656 43.3749 L 106.0656 47.4094 L 104.9515 47.4094 L 104.9515 43.6592 C 104.9515 42.883 104.776 41.9078 103.8727 41.9078 C 102.7364 41.9078 102.2853 43.0673 102.2853 44.2384 L 102.2853 47.4094 L 101.169 47.4094 L 101.169 43.6592 C 101.169 42.883 100.994 41.9078 100.0939 41.9078 C 98.9524 41.9078 98.5039 43.0673 98.5039 44.2384 L 98.5039 47.4094 L 97.3882 47.4094 L 97.3882 41.1172 Z" fill="#007cc2"/>
			<path d="M 107.4111 41.1172 L 108.4788 41.1172 L 108.4788 42.001 L 108.4999 42.001 C 108.7945 41.5364 109.4812 40.9686 110.549 40.9686 C 112.3034 40.9686 113.1609 42.4612 113.1609 44.1518 C 113.1609 45.8806 112.3914 47.5569 110.5648 47.5569 C 109.4986 47.5569 108.8894 47.1231 108.5474 46.5437 L 108.5268 46.5437 L 108.5268 50 L 107.4111 50 L 107.4111 41.1172 ZM 110.3155 41.9078 C 109.1018 41.9078 108.5268 43.102 108.5268 44.2767 C 108.5268 45.3239 109.049 46.6206 110.2997 46.6206 C 111.4976 46.6206 111.9999 45.2278 111.9751 44.2384 C 111.9999 43.102 111.5266 41.9078 110.3155 41.9078 L 110.3155 41.9078 Z" fill="#007cc2"/>
			<path d="M 114.4642 41.5611 C 115.0208 41.2161 115.6853 40.9686 116.4548 40.9686 C 118.186 40.9686 118.887 41.8573 118.887 43.5713 L 118.887 46.1784 C 118.887 46.8904 118.9144 47.2229 118.9339 47.4094 L 117.892 47.4094 L 117.892 46.5948 L 117.8688 46.5948 C 117.6073 46.9798 117.0134 47.5552 115.9926 47.5552 C 114.6903 47.5552 113.7786 46.9656 113.7786 45.5965 C 113.7786 44.0195 115.4339 43.5237 116.5871 43.5237 C 117.0271 43.5237 117.3344 43.5237 117.7755 43.5493 C 117.7755 42.4612 117.3955 41.9078 116.2793 41.9078 C 115.6521 41.9078 114.9744 42.153 114.5259 42.5494 L 114.4642 41.5611 ZM 117.7755 44.4112 C 117.5394 44.4112 117.3001 44.3871 117.0619 44.3871 C 116.4548 44.3871 114.9607 44.4881 114.9607 45.5965 C 114.9607 46.2624 115.5741 46.6206 116.0901 46.6206 C 117.1884 46.6206 117.7755 45.9047 117.7755 44.9663 L 117.7755 44.4112 Z" fill="#007cc2"/>
			<path d="M 120.3073 41.1172 L 121.3898 41.1172 L 121.3898 42.1184 L 121.4093 42.1184 C 121.7461 41.4009 122.5488 40.9686 123.3941 40.9686 C 124.9594 40.9686 125.6571 41.9778 125.6571 43.6685 L 125.6571 47.4094 L 124.5441 47.4094 L 124.5441 44.1501 C 124.5441 42.6862 124.2336 41.9664 123.2649 41.9078 C 121.9943 41.9078 121.423 42.9692 121.423 44.4983 L 121.423 47.4094 L 120.3073 47.4094 L 120.3073 41.1172 ZM 120.9809 40.1776 C 121.0457 39.6495 121.2828 38.7976 122.0876 38.7976 C 122.7032 38.7976 123.4199 39.3797 123.9143 39.3616 C 124.2705 39.39 124.4239 39.0802 124.4608 38.7976 L 125.0089 38.7976 C 124.9372 39.3271 124.699 40.1776 123.8942 40.1776 C 123.276 40.1776 122.5667 39.5985 122.0644 39.6149 C 121.7108 39.588 121.5558 39.8962 121.521 40.1776 L 120.9809 40.1776 Z" fill="#007cc2"/>
			<path d="M 128.0714 38.4653 L 129.36 38.4653 L 127.8037 40.2412 L 127.0121 40.2412 L 128.0714 38.4653 ZM 127.235 41.1172 L 128.3481 41.1172 L 128.3481 47.4094 L 127.235 47.4094 L 127.235 41.1172 Z" fill="#007cc2"/>
			<path d="M 130.1758 41.5611 C 130.7329 41.2161 131.3996 40.9686 132.169 40.9686 C 133.9008 40.9686 134.5965 41.8573 134.5965 43.5713 L 134.5965 46.1784 C 134.5965 46.8904 134.6244 47.2229 134.6465 47.4094 L 133.6036 47.4094 L 133.6036 46.5948 L 133.5851 46.5948 C 133.319 46.9798 132.7266 47.5552 131.7057 47.5552 C 130.4008 47.5552 129.4928 46.9656 129.4928 45.5965 C 129.4928 44.0195 131.1503 43.5237 132.3002 43.5237 C 132.7413 43.5237 133.0496 43.5237 133.4834 43.5493 C 133.4834 42.4612 133.105 41.9078 131.9919 41.9078 C 131.3627 41.9078 130.6886 42.153 130.2385 42.5494 L 130.1758 41.5611 ZM 133.4834 44.4112 C 133.2489 44.4112 133.0091 44.3871 132.7729 44.3871 C 132.169 44.3871 130.6738 44.4881 130.6738 45.5965 C 130.6738 46.2624 131.2926 46.6206 131.8001 46.6206 C 132.9058 46.6206 133.4834 45.9047 133.4834 44.9663 L 133.4834 44.4112 Z" fill="#007cc2"/>
			<path d="M 152.8615 42.3592 C 152.2428 42.3592 151.7278 42.6955 151.5972 43.3383 L 154.0536 43.3383 C 153.9487 42.7486 153.4243 42.3592 152.8615 42.3592 L 152.8615 42.3592 ZM 152.8963 47.5514 C 150.9252 47.5514 149.4464 46.3902 149.4464 44.2509 C 149.4464 42.1771 150.8124 40.9331 152.7471 40.9331 C 154.8199 40.9331 156.0141 42.2643 156.0141 44.3805 L 156.0141 44.6141 L 151.5619 44.6141 C 151.5619 45.5083 152.0177 45.9903 152.891 45.9903 C 153.3432 45.9903 153.6715 45.8379 153.9024 45.4187 L 155.9403 45.4187 C 155.6004 46.8889 154.2644 47.5514 152.8963 47.5514 L 152.8963 47.5514 Z" fill="#007cc2"/>
			<path d="M 159.7444 47.4455 L 157.6258 47.4455 L 157.6258 43.0508 L 156.5717 43.0508 L 156.5717 41.2386 L 157.6258 41.2386 L 157.6258 39.3692 L 159.7444 39.3692 L 159.7444 41.2386 L 160.7895 41.2386 L 160.7895 43.0508 L 159.7444 43.0508 L 159.7444 47.4455 Z" fill="#007cc2"/>
			<path d="M 173.692 47.4176 L 171.5729 47.4176 L 171.5729 43.2396 L 170.5246 43.2396 L 170.5246 41.4189 L 171.5729 41.4189 L 171.5729 41.0965 C 171.5729 40.2353 171.5971 39.6045 172.1784 38.9156 C 172.7028 38.2788 173.4612 37.9283 174.2644 37.9283 C 174.589 37.9283 174.8826 37.9886 175.1687 38.1433 L 175.1687 40.0482 C 174.9231 39.9408 174.7071 39.8415 174.4246 39.8415 C 173.8786 39.8415 173.692 40.1761 173.692 40.8781 L 173.692 41.4189 L 174.9548 41.4189 L 174.9548 43.2396 L 173.692 43.2396 L 173.692 47.4176 L 173.692 47.4176 Z" fill="#007cc2"/>
			<path d="M 178.831 42.3636 C 178.2123 42.3636 177.7032 42.7042 177.5719 43.3432 L 180.0305 43.3432 C 179.9219 42.7524 179.4028 42.3636 178.831 42.3636 L 178.831 42.3636 ZM 178.8806 47.5531 C 176.9021 47.5531 175.427 46.3957 175.427 44.2564 C 175.427 42.1825 176.7857 40.9369 178.724 40.9369 C 180.7968 40.9369 182 42.2702 182 44.3866 L 182 44.6158 L 177.544 44.6158 C 177.544 45.5142 177.9931 45.9943 178.8642 45.9943 C 179.3201 45.9943 179.6448 45.8406 179.8777 45.4248 L 181.9099 45.4248 C 181.5773 46.8904 180.2392 47.5531 178.8806 47.5531 L 178.8806 47.5531 Z" fill="#007cc2"/>
			<path d="M 148.9446 47.4493 L 146.7702 47.4493 L 146.1551 42.4382 L 146.1388 42.4382 L 144.125 47.4493 L 143.2613 47.4493 L 141.3471 42.4382 L 141.3192 42.4382 L 140.6235 47.4493 L 138.458 47.4493 L 139.8793 38.7477 L 142.0169 38.7477 L 143.7187 43.3997 L 145.5148 38.7477 L 147.6782 38.7477 L 148.9446 47.4493 Z" fill="#007cc2"/>
			<path d="M 166.5356 47.44 L 161.6807 47.44 L 161.6807 38.5947 L 163.8942 38.5947 L 163.8942 45.4939 L 166.5356 45.4939 L 166.5356 47.44 Z" fill="#007cc2"/>
			<path d="M 169.4464 47.4455 L 167.333 47.4455 L 167.333 40.809 L 169.4464 40.809 L 169.4464 47.4455 Z" fill="#007cc2"/>
			<path d="M 168.4092 39.9715 C 167.6797 39.9715 167.0895 39.3527 167.0895 38.593 C 167.0895 37.8349 167.6797 37.2162 168.4092 37.2162 C 169.1364 37.2162 169.7288 37.8349 169.7288 38.593 C 169.7288 39.3527 169.1364 39.9715 168.4092 39.9715 L 168.4092 39.9715 Z" fill="#007cc2"/>
			<path d="M 6.4673 9.9226 L 6.4673 16.3817 L 7.5601 16.3817 C 9.8985 16.3817 12.214 16.3817 12.214 13.2181 C 12.214 9.9591 10.0669 9.9226 7.5601 9.9226 L 6.4673 9.9226 L 6.4673 9.9226 ZM 6.4673 30.4031 L 0 30.4031 L 0 4.4933 L 9.8985 4.4933 C 15.2523 4.4933 18.9496 7.0709 18.9496 13.0135 C 18.9496 19.1298 15.7785 21.8079 10.1339 21.8079 L 6.4673 21.8079 L 6.4673 30.4031 L 6.4673 30.4031 Z" fill="#007cc2"/>
			<path d="M 26.577 30.3705 L 20.22 30.3705 L 20.22 11.7081 L 26.577 11.7099 L 26.577 14.7603 L 26.6526 14.7603 C 27.8787 12.4692 29.9694 11.4487 32.4569 11.4487 L 33.6741 11.4487 L 33.6741 17.8148 C 32.8006 17.3076 31.9639 17.202 30.9852 17.202 C 27.4523 17.202 26.577 19.6352 26.577 22.8404 L 26.577 30.3705 L 26.577 30.3705 Z" fill="#007cc2"/>
			<path d="M 44.8815 16.835 C 42.2956 16.835 40.7891 18.7608 40.7891 21.0559 C 40.7891 23.4196 42.2956 25.24 44.8815 25.24 C 47.4689 25.24 48.968 23.4216 48.968 21.0559 C 48.968 18.7628 47.4689 16.835 44.8815 16.835 L 44.8815 16.835 ZM 44.8815 30.9874 C 39.1435 30.9874 34.0775 27.4232 34.0775 21.0559 C 34.0775 14.687 39.1085 11.0893 44.8815 11.0893 C 50.645 11.0893 55.6815 14.687 55.6815 21.0559 C 55.6815 27.3831 50.645 30.9874 44.8815 30.9874 L 44.8815 30.9874 Z" fill="#007cc2"/>
			<path d="M 99.7766 16.835 C 97.1953 16.835 95.6917 18.7628 95.6917 21.0559 C 95.6917 23.4216 97.1953 25.24 99.7766 25.24 C 102.3691 25.24 103.8705 23.4216 103.8705 21.0559 C 103.8705 18.7628 102.3691 16.835 99.7766 16.835 L 99.7766 16.835 ZM 98.1734 30.9874 C 92.8621 30.9874 89.1223 26.3651 89.1223 21.0213 C 89.1223 15.6679 92.7957 11.0893 98.1049 11.0893 C 100.1661 11.0893 102.3338 11.8872 103.6603 13.5231 L 103.6603 2.1053 L 110.0209 2.1053 L 110.0209 30.3705 L 103.6603 30.3705 L 103.6603 28.2947 L 103.5881 28.2947 C 102.4734 30.1514 100.271 30.9874 98.1734 30.9874 L 98.1734 30.9874 Z" fill="#007cc2"/>
			<path d="M 87.3009 30.432 L 81.0041 30.432 L 81.0041 10.6911 L 87.3009 10.6911 L 87.3009 30.432 Z" fill="#007cc2"/>
			<path d="M 84.2179 8.188 C 82.046 8.188 80.2889 6.3589 80.2889 4.0988 C 80.2889 1.8347 82.046 0 84.2179 0 C 86.3929 0 88.1505 1.8347 88.1505 4.0988 C 88.1505 6.3589 86.3929 8.188 84.2179 8.188 L 84.2179 8.188 Z" fill="#007cc2"/>
			<path d="M 122.6468 16.835 C 120.0544 16.835 118.5528 18.7628 118.5528 21.0559 C 118.5528 23.4216 120.0544 25.24 122.6468 25.24 C 125.2287 25.24 126.7312 23.4216 126.7312 21.0559 C 126.7312 18.7628 125.2287 16.835 122.6468 16.835 L 122.6468 16.835 ZM 121.0335 30.9874 C 115.7201 30.9874 111.9825 26.3651 111.9825 21.0213 C 111.9825 15.6679 115.6521 11.0893 120.9613 11.0893 C 123.032 11.0893 125.1954 11.8872 126.5209 13.5231 L 126.5209 11.7061 L 132.8837 11.7061 L 132.8837 30.3705 L 126.5209 30.3705 L 126.5209 28.2947 L 126.4545 28.2947 C 125.3304 30.1514 123.1316 30.9874 121.0335 30.9874 L 121.0335 30.9874 Z" fill="#007cc2"/>
			<path d="M 68.3885 30.4158 L 63.3612 30.4158 L 52.8851 4.4841 L 59.9261 4.4841 L 65.9445 20.2356 L 71.9915 4.4841 L 79.0251 4.4841 L 68.3885 30.4158 Z" fill="#007cc2"/>
			<path d="M 149.6978 15.4816 L 146.388 23.3141 L 153.0017 23.3141 L 149.6978 15.4816 ZM 158.5818 30.3812 L 156.0879 30.3812 L 153.9651 25.5225 L 145.4262 25.5225 L 143.3071 30.3812 L 140.8132 30.3812 L 149.6978 10.1834 L 158.5818 30.3812 L 158.5818 30.3812 Z" fill="#007cc2"/>
			<path d="M 162.4301 30.3812 L 160.1043 30.3812 L 160.1043 11.0126 L 169.118 11.0126 L 169.118 13.2198 L 162.4301 13.2198 L 162.4301 18.6641 L 168.8967 18.6641 L 168.8967 20.8751 L 162.4301 20.8751 L 162.4301 30.3812 Z" fill="#007cc2"/>
			<path d="M 174.1442 13.1667 L 174.1442 20.1039 L 174.8878 20.1039 C 177.2547 20.1039 179.8218 19.641 179.8218 16.5594 C 179.8218 13.5283 177.0607 13.1667 174.7587 13.1667 L 174.1442 13.1667 L 174.1442 13.1667 ZM 174.1442 30.3812 L 171.8237 30.3812 L 171.8237 11.0126 L 174.4931 11.0126 C 180.2208 11.0126 181.9984 13.0629 181.9984 16.6101 C 181.9984 20.6917 179.0081 22.2585 175.4823 22.2585 L 174.1442 22.2585 L 174.1442 30.3812 L 174.1442 30.3812 Z" fill="#007cc2"/>
			<g>
				<path d="M 177.5498 27.8923 C 177.3485 27.8145 177.2363 27.776 177.0291 27.776 C 176.8093 27.776 176.5511 27.8528 176.5511 28.1534 C 176.5511 28.707 177.7306 28.5771 177.7306 29.5271 C 177.7306 30.1361 177.2784 30.379 176.7266 30.379 C 176.5348 30.379 176.3424 30.3226 176.1654 30.262 L 176.2022 29.8788 C 176.3335 29.9335 176.5696 30.0182 176.7688 30.0182 C 176.9996 30.0182 177.3174 29.8865 177.3174 29.5453 C 177.3174 28.9076 176.1306 29.0834 176.1306 28.1937 C 176.1306 27.6828 176.5163 27.411 177.0144 27.411 C 177.1973 27.411 177.4112 27.4455 177.6015 27.5128 L 177.5498 27.8923 Z" fill="#007cc2"/>
				<path d="M 178.275 27.4599 L 178.9269 27.4599 L 179.7923 29.8422 L 180.6435 27.4599 L 181.2912 27.4599 L 181.2912 30.332 L 180.898 30.332 L 180.898 27.8432 L 180.8869 27.8432 L 179.9752 30.332 L 179.5968 30.332 L 178.6814 27.8432 L 178.6703 27.8432 L 178.6703 30.332 L 178.275 30.332 L 178.275 27.4599 Z" fill="#007cc2"/>
			</g>
		</g>
	</g>
</svg>